<svg width="201" height="230" xmlns="http://www.w3.org/2000/svg" xmlns:xlink="http://www.w3.org/1999/xlink" xml:space="preserve" overflow="hidden"><defs><clipPath id="clip0"><rect x="382" y="248" width="201" height="230"/></clipPath><radialGradient cx="30.2167" cy="38.2919" r="50.3207" gradientUnits="userSpaceOnUse" spreadMethod="pad" id="fill1" gradientTransform="matrix(3.75183 0 0 -3.75183 112.821 367.4)"><stop offset="0" stop-color="#858DFF"/><stop offset="0.51514" stop-color="#5864FA"/><stop offset="1" stop-color="#5864FA"/></radialGradient><linearGradient x1="195.999" y1="72.0333" x2="93.6112" y2="249.375" gradientUnits="userSpaceOnUse" spreadMethod="pad" id="fill2"><stop offset="0" stop-color="#8087FF"/><stop offset="0.00475" stop-color="#8087FF"/><stop offset="0.05952" stop-color="#8087FF" stop-opacity="0.79702"/><stop offset="0.12357" stop-color="#8087FF" stop-opacity="0.58812"/><stop offset="0.18847" stop-color="#8087FF" stop-opacity="0.40794"/><stop offset="0.25289" stop-color="#8087FF" stop-opacity="0.26085"/><stop offset="0.31675" stop-color="#8087FF" stop-opacity="0.14665"/><stop offset="0.37988" stop-color="#8087FF" stop-opacity="0.0652"/><stop offset="0.44198" stop-color="#8087FF" stop-opacity="0.01636"/><stop offset="0.50186" stop-color="#8087FF" stop-opacity="0"/><stop offset="1" stop-color="#8087FF" stop-opacity="0"/></linearGradient><linearGradient x1="173.295" y1="58.9208" x2="173.295" y2="280.737" gradientUnits="userSpaceOnUse" spreadMethod="pad" id="fill3"><stop offset="0" stop-color="#4551E0" stop-opacity="0"/><stop offset="0.00038" stop-color="#4551E0" stop-opacity="0"/><stop offset="0.0727" stop-color="#4551E0" stop-opacity="0.01861"/><stop offset="0.14767" stop-color="#4551E0" stop-opacity="0.07416"/><stop offset="0.22388" stop-color="#4551E0" stop-opacity="0.16679"/><stop offset="0.30094" stop-color="#4551E0" stop-opacity="0.2966"/><stop offset="0.37866" stop-color="#4551E0" stop-opacity="0.46375"/><stop offset="0.45584" stop-color="#4551E0" stop-opacity="0.66526"/><stop offset="0.50118" stop-color="#4551E0" stop-opacity="0.8"/><stop offset="0.60399" stop-color="#4551E0" stop-opacity="0.78139"/><stop offset="0.71055" stop-color="#4551E0" stop-opacity="0.72587"/><stop offset="0.81882" stop-color="#4551E0" stop-opacity="0.63336"/><stop offset="0.92754" stop-color="#4551E0" stop-opacity="0.50472"/><stop offset="0.99962" stop-color="#4551E0" stop-opacity="0.4"/><stop offset="1" stop-color="#4551E0" stop-opacity="0.4"/></linearGradient></defs><g clip-path="url(#clip0)" transform="translate(-382 -248)"><path d="M76.2497 116.877 76.2497 239.351 170.173 280.088C172.161 280.951 174.423 280.955 176.412 280.093L255.144 245.941C264.37 241.939 270.34 232.842 270.34 222.785L270.34 100.313 176.417 59.5743C174.428 58.7117 172.16 58.7133 170.171 59.576L91.4454 93.7216C82.2195 97.7236 76.2497 106.82 76.2497 116.877Z" fill="url(#fill1)" transform="matrix(1 0 0 1.00165 308.869 193.363)"/><path d="M170.171 59.576 91.3799 93.7474C82.1939 97.7311 76.2497 106.788 76.2497 116.801L76.2497 239.351 170.173 280.088C171.169 280.524 172.23 280.737 173.295 280.737L173.295 58.9248C172.23 58.9248 171.168 59.1397 170.171 59.5759L170.171 59.5759Z" fill="url(#fill2)" transform="matrix(1 0 0 1.00165 308.869 193.363)"/><path d="M167.436 278.086C168.916 279.771 171.051 280.737 173.295 280.737 175.538 280.737 177.673 279.771 179.154 278.086L220.983 230.464C224.872 226.037 227.016 220.346 227.016 214.453L227.016 81.7249 176.417 59.5743C174.423 58.7018 172.164 58.7035 170.171 59.576L119.573 81.5267 119.573 214.453C119.573 220.346 121.718 226.037 125.607 230.464L167.436 278.086Z" fill="url(#fill3)" transform="matrix(1 0 0 1.00165 308.869 193.363)"/><path d="M241.789 216.812C235.514 219.594 215.431 227.61 189.649 229.017L186.075 211.217C202.017 206.276 199.815 199.41 203.652 192.337 208.133 184.075 216.664 182.697 214.714 175.393 212.765 168.088 208.173 151.51 208.173 151.51L208.083 151.533C207.412 148.475 206.312 145.722 204.756 143.323 203.025 140.657 200.945 138.346 198.545 136.413L217.073 131.862 243.166 213.744C243.557 214.971 242.966 216.291 241.789 216.812ZM195.667 116.6C193.235 114.786 190.561 113.429 187.693 112.558 184.079 111.462 180.286 110.906 176.419 110.906 173.069 110.906 169.767 111.38 166.606 112.314 163.451 113.249 160.627 114.851 158.213 116.717 157.428 117.325 156.687 118.013 155.982 118.743L155.982 143.044C156.79 143.733 157.641 144.366 158.542 144.901 160.926 146.32 163.541 147.464 166.314 148.301 169.088 149.14 171.714 149.994 174.12 150.838 176.525 151.684 178.553 152.723 180.15 153.928 181.768 155.151 182.589 156.841 182.589 158.951 182.589 160.205 182.269 161.311 181.641 162.239 181.015 163.159 180.182 163.927 179.163 164.519 178.147 165.108 176.987 165.555 175.715 165.849 174.444 166.142 173.172 166.291 171.934 166.291 170.965 166.291 169.996 166.207 169.054 166.042 164.015 165.161 159.469 162.877 155.834 159.463 155.678 161.876 155.402 164.26 154.974 166.579 154.428 169.527 153.525 172.291 152.291 174.852 152.625 175.064 152.948 175.292 153.285 175.497 154.994 176.534 156.787 177.391 158.618 178.042 162.42 179.396 166.605 180.082 171.056 180.082 174.6 180.082 178.017 179.625 181.211 178.722 184.4 177.821 187.239 176.417 189.652 174.551 192.063 172.686 194.004 170.305 195.419 167.475 196.833 164.644 197.551 161.284 197.551 157.488 197.551 153.502 196.77 150.278 195.23 147.903 193.687 145.526 191.716 143.603 189.371 142.189 187.014 140.77 184.449 139.659 181.747 138.887 179.035 138.112 176.458 137.325 174.088 136.546 171.713 135.765 169.717 134.808 168.156 133.701 166.569 132.577 165.764 130.936 165.764 128.822 165.764 127.502 166.1 126.181 166.762 125.253 167.419 124.332 168.286 123.581 169.34 123.021 170.384 122.467 171.511 122.052 172.687 121.791 173.865 121.53 175.022 121.397 176.126 121.397 178.013 121.397 180.045 121.777 182.164 122.526 184.237 123.26 185.914 124.399 187.151 125.914 187.151 125.914 195.667 116.6 195.667 116.6ZM114.375 152.497 100.511 152.497C100.513 154.205 100.587 157.46 100.734 159.192 100.883 160.955 101.148 162.729 101.532 164.504 102.666 169.751 105.389 173.688 109.014 176.186 112.746 178.759 117.381 180.064 122.789 180.064 127.428 180.064 131.231 179.363 134.094 177.981 136.954 176.599 140.051 174.743 141.591 172.465 143.133 170.184 144.193 167.527 144.741 164.565 145.292 161.59 145.568 158.482 145.568 155.325L145.568 110.906 131.704 110.906 131.704 160.037C131.704 161.668 131.254 163.248 130.372 164.62 130.336 164.676 130.299 164.732 130.262 164.787 128.962 166.716 126.989 168.023 124.708 168.466 124.146 168.574 123.584 168.628 123.032 168.628 122.818 168.628 122.605 168.62 122.394 168.605 117.981 168.28 114.411 164.631 114.344 160.207 114.344 160.207 114.375 152.497 114.375 152.497ZM142.102 221.206 142.102 190.812 128.273 194.516 128.273 239.94C128.273 240.781 128.692 241.566 129.391 242.034 130.09 242.502 130.976 242.592 131.754 242.271 138.376 239.54 153.756 233.764 171.882 230.76L170.119 214.265C164.148 215.34 142.102 221.205 142.102 221.205L142.102 221.205Z" fill="#FFFFFF" transform="matrix(1 0 0 1.00165 308.869 193.363)"/><path d="M326.694 134.182 322.328 134.182 338.341 97.3734 341.98 97.3734 357.992 134.182 353.626 134.182 349.571 124.512 330.753 124.512 326.694 134.182ZM332.154 121.081 348.116 121.081 340.162 101.741 332.154 121.081Z" fill="#2E3438" transform="matrix(1 0 0 1.00165 308.869 193.363)"/><path d="M362.101 117.441C362.101 116.368 362.074 115.275 362.024 114.166 361.969 113.058 361.925 111.619 361.892 109.851L365.273 109.851 365.273 114.375 365.374 114.375C365.618 113.716 365.963 113.083 366.417 112.476 366.867 111.87 367.412 111.325 368.052 110.839 368.695 110.354 369.439 109.964 370.289 109.67 371.139 109.375 372.1 109.227 373.173 109.227 374.144 109.227 374.994 109.331 375.721 109.54L375.044 112.919C374.594 112.745 373.934 112.659 373.071 112.659 371.751 112.659 370.627 112.911 369.69 113.412 368.756 113.914 367.974 114.556 367.351 115.336 366.728 116.116 366.268 116.957 365.973 117.857 365.679 118.759 365.53 119.624 365.53 120.457L365.53 134.182 362.101 134.182 362.101 117.441Z" fill="#2E3438" transform="matrix(1 0 0 1.00165 308.869 193.363)"/><path d="M395.789 115.569C395.2 114.669 394.378 113.906 393.318 113.283 392.262 112.658 391.057 112.347 389.707 112.347 388.285 112.312 387.009 112.537 385.885 113.022 384.758 113.508 383.797 114.183 382.998 115.05 382.203 115.916 381.597 116.947 381.181 118.143 380.764 119.338 380.555 120.631 380.555 122.017 380.555 123.403 380.764 124.694 381.181 125.889 381.597 127.086 382.203 128.116 382.998 128.983 383.797 129.849 384.758 130.526 385.885 131.01 387.009 131.496 388.285 131.721 389.707 131.685 391.057 131.685 392.262 131.374 393.318 130.75 394.378 130.127 395.2 129.365 395.789 128.463L398.595 130.594C397.383 132.015 396.012 133.065 394.489 133.74 392.963 134.415 391.369 134.77 389.707 134.806 387.73 134.84 385.946 134.537 384.352 133.896 382.758 133.254 381.397 132.362 380.27 131.218 379.143 130.074 378.287 128.715 377.698 127.136 377.106 125.561 376.815 123.853 376.815 122.017 376.815 120.179 377.106 118.473 377.698 116.896 378.287 115.319 379.143 113.958 380.27 112.814 381.397 111.67 382.758 110.778 384.352 110.137 385.946 109.496 387.73 109.193 389.707 109.226 391.369 109.262 392.963 109.617 394.489 110.293 396.012 110.97 397.383 112.017 398.595 113.439L395.789 115.569Z" fill="#2E3438" transform="matrix(1 0 0 1.00165 308.869 193.363)"/><path d="M431.555 104.133C430.306 102.816 428.816 101.775 427.084 101.014 425.351 100.25 423.34 99.8696 421.052 99.8696 418.696 99.8696 416.581 100.303 414.709 101.169 412.837 102.036 411.253 103.197 409.954 104.652 408.654 106.107 407.659 107.798 406.965 109.721 406.271 111.645 405.926 113.664 405.926 115.777 405.926 117.893 406.271 119.91 406.965 121.834 407.659 123.759 408.654 125.447 409.954 126.903 411.253 128.358 412.837 129.521 414.709 130.386 416.581 131.254 418.696 131.685 421.052 131.685 422.958 131.685 424.789 131.452 426.539 130.985 428.289 130.516 429.856 129.885 431.243 129.086L431.243 116.766 422.457 116.766 422.457 113.334 434.987 113.334 434.987 131.374C432.905 132.587 430.627 133.515 428.15 134.156 425.672 134.796 423.306 135.117 421.052 135.117 418.314 135.117 415.775 134.632 413.437 133.662 411.098 132.692 409.07 131.349 407.354 129.633 405.638 127.917 404.295 125.881 403.327 123.523 402.355 121.167 401.871 118.585 401.871 115.777 401.871 112.97 402.355 110.389 403.327 108.032 404.295 105.674 405.638 103.638 407.354 101.922 409.07 100.206 411.098 98.8643 413.437 97.8929 415.775 96.9231 418.314 96.4375 421.052 96.4375 424 96.4375 426.539 96.8453 428.671 97.6593 430.8 98.475 432.699 99.7138 434.364 101.377L431.555 104.132Z" fill="#2E3438" transform="matrix(1 0 0 1.00165 308.869 193.363)"/><path d="M448.556 134.182 444.812 134.182 444.812 97.3734 448.556 97.3734 448.556 134.182Z" fill="#2E3438" transform="matrix(1 0 0 1.00165 308.869 193.363)"/><path d="M475.951 103.456C474.323 101.064 471.951 99.8696 468.83 99.8696 467.859 99.8696 466.908 99.9999 465.97 100.259 465.036 100.519 464.193 100.917 463.448 101.455 462.704 101.993 462.105 102.686 461.654 103.535 461.204 104.385 460.981 105.38 460.981 106.524 460.981 108.187 461.448 109.479 462.382 110.398 463.32 111.315 464.481 112.07 465.868 112.658 467.253 113.247 468.769 113.775 470.417 114.244 472.062 114.711 473.579 115.336 474.966 116.116 476.351 116.896 477.512 117.927 478.449 119.209 479.383 120.492 479.85 122.242 479.85 124.459 479.85 126.123 479.495 127.622 478.788 128.957 478.077 130.291 477.139 131.41 475.978 132.31 474.817 133.212 473.518 133.904 472.079 134.39 470.641 134.874 469.195 135.117 467.74 135.117 465.486 135.117 463.347 134.693 461.319 133.843 459.292 132.995 457.566 131.601 456.144 129.658L459.576 127.216C460.372 128.566 461.475 129.651 462.893 130.465 464.308 131.279 465.983 131.685 467.919 131.685 468.854 131.685 469.784 131.54 470.719 131.244 471.649 130.951 472.489 130.516 473.23 129.944 473.975 129.372 474.587 128.671 475.071 127.839 475.555 127.008 475.796 126.055 475.796 124.98 475.796 123.698 475.528 122.631 474.99 121.782 474.452 120.934 473.744 120.223 472.858 119.651 471.974 119.079 470.969 118.604 469.845 118.221 468.718 117.84 467.557 117.46 466.359 117.077 465.164 116.696 464.003 116.263 462.876 115.777 461.749 115.293 460.747 114.677 459.861 113.933 458.977 113.186 458.266 112.251 457.732 111.125 457.194 109.998 456.926 108.587 456.926 106.888 456.926 105.121 457.261 103.577 457.938 102.261 458.615 100.944 459.515 99.8526 460.642 98.9861 461.77 98.1196 463.042 97.4782 464.464 97.0619 465.885 96.6456 467.341 96.4374 468.83 96.4374 470.908 96.4374 472.797 96.7674 474.496 97.4258 476.195 98.0841 477.772 99.245 479.228 100.909L475.951 103.456Z" fill="#2E3438" transform="matrix(1 0 0 1.00165 308.869 193.363)"/><path d="M520.04 127.319 532.465 97.3734 538.185 97.3734 538.185 134.182 534.442 134.182 534.442 102.364 534.337 102.364 521.028 134.182 519.052 134.182 505.743 102.364 505.638 102.364 505.638 134.182 501.895 134.182 501.895 97.3734 507.615 97.3734 520.04 127.319Z" fill="#2E3438" transform="matrix(1 0 0 1.00165 308.869 193.363)"/><path d="M562.514 119.26 562.514 118.638C562.514 114.444 560.436 112.347 556.276 112.347 553.433 112.347 550.955 113.3 548.84 115.205L546.762 112.762C549.05 110.406 552.482 109.226 557.055 109.226 558.232 109.226 559.37 109.401 560.46 109.748 561.553 110.095 562.497 110.623 563.296 111.333 564.091 112.044 564.731 112.936 565.218 114.011 565.702 115.085 565.946 116.368 565.946 117.857L565.946 128.722C565.946 129.658 565.99 130.638 566.075 131.66 566.163 132.682 566.258 133.523 566.362 134.182L563.035 134.182C562.93 133.593 562.853 132.951 562.802 132.257 562.748 131.565 562.724 130.89 562.724 130.23L562.619 130.23C561.614 131.86 560.426 133.029 559.058 133.74 557.688 134.449 556.016 134.806 554.039 134.806 552.966 134.806 551.927 134.657 550.922 134.364 549.916 134.07 549.023 133.618 548.244 133.012 547.463 132.406 546.84 131.66 546.373 130.777 545.906 129.893 545.672 128.861 545.672 127.683 545.672 125.708 546.18 124.156 547.205 123.031 548.227 121.904 549.51 121.063 551.05 120.509 552.594 119.954 554.239 119.607 555.988 119.468 557.738 119.331 559.343 119.26 560.798 119.26L562.514 119.26ZM560.747 122.068C559.881 122.068 558.798 122.112 557.498 122.198 556.198 122.285 554.949 122.493 553.755 122.823 552.56 123.153 551.538 123.662 550.688 124.356 549.838 125.05 549.412 126.003 549.412 127.216 549.412 128.013 549.578 128.697 549.906 129.269 550.238 129.841 550.678 130.308 551.233 130.672 551.788 131.036 552.404 131.296 553.078 131.452 553.755 131.608 554.438 131.685 555.132 131.685 556.381 131.685 557.464 131.479 558.381 131.063 559.299 130.646 560.07 130.083 560.696 129.372 561.319 128.663 561.776 127.83 562.074 126.878 562.365 125.925 562.514 124.911 562.514 123.836L562.514 122.068 560.747 122.068Z" fill="#2E3438" transform="matrix(1 0 0 1.00165 308.869 193.363)"/><path d="M573.9 109.851 577.329 109.851 577.329 113.906 577.434 113.906C577.989 113.075 578.645 112.364 579.41 111.775 580.172 111.186 580.971 110.7 581.8 110.32 582.632 109.937 583.492 109.661 584.376 109.487 585.259 109.314 586.098 109.226 586.897 109.226 588.803 109.226 590.542 109.548 592.12 110.189 593.697 110.831 595.058 111.723 596.202 112.867 597.346 114.011 598.239 115.361 598.879 116.921 599.522 118.482 599.84 120.179 599.84 122.017 599.84 123.853 599.522 125.551 598.879 127.111 598.239 128.671 597.346 130.022 596.202 131.166 595.058 132.31 593.697 133.203 592.12 133.843 590.542 134.484 588.803 134.806 586.897 134.806 586.098 134.806 585.259 134.718 584.376 134.545 583.492 134.371 582.632 134.095 581.8 133.714 580.971 133.332 580.172 132.848 579.41 132.257 578.645 131.668 577.989 130.958 577.434 130.127L577.329 130.127 577.329 149.154 573.9 149.154 573.9 109.851ZM596.097 122.017C596.097 120.665 595.88 119.399 595.447 118.221 595.014 117.043 594.401 116.021 593.602 115.153 592.803 114.288 591.842 113.603 590.718 113.1 589.591 112.598 588.315 112.347 586.897 112.347 585.476 112.347 584.176 112.598 582.998 113.1 581.817 113.603 580.795 114.288 579.928 115.153 579.062 116.021 578.388 117.043 577.901 118.221 577.417 119.399 577.173 120.665 577.173 122.017 577.173 123.368 577.417 124.633 577.901 125.811 578.388 126.991 579.062 128.013 579.928 128.879 580.795 129.746 581.817 130.43 582.998 130.932 584.176 131.435 585.476 131.685 586.897 131.685 588.315 131.685 589.591 131.435 590.718 130.932 591.842 130.43 592.803 129.746 593.602 128.879 594.401 128.013 595.014 126.991 595.447 125.811 595.88 124.633 596.097 123.368 596.097 122.017Z" fill="#2E3438" transform="matrix(1 0 0 1.00165 308.869 193.363)"/><path d="M618.557 115.622C618.036 114.617 617.342 113.819 616.479 113.231 615.609 112.642 614.553 112.347 613.308 112.347 612.715 112.347 612.12 112.417 611.514 112.554 610.905 112.694 610.36 112.911 609.876 113.203 609.388 113.5 608.999 113.872 608.705 114.322 608.41 114.772 608.265 115.327 608.265 115.986 608.265 117.13 608.661 117.961 609.459 118.482 610.255 119.001 611.453 119.452 613.047 119.832L616.53 120.665C618.229 121.046 619.64 121.817 620.768 122.978 621.891 124.139 622.456 125.586 622.456 127.319 622.456 128.637 622.189 129.771 621.651 130.724 621.113 131.679 620.402 132.457 619.519 133.065 618.635 133.67 617.62 134.112 616.479 134.39 615.335 134.667 614.171 134.806 612.993 134.806 611.121 134.806 609.382 134.449 607.77 133.74 606.159 133.029 604.782 131.807 603.638 130.074L606.599 128.047C607.293 129.157 608.166 130.04 609.226 130.699 610.282 131.357 611.538 131.685 612.993 131.685 613.687 131.685 614.381 131.607 615.075 131.452 615.768 131.296 616.381 131.054 616.919 130.724 617.457 130.396 617.891 129.971 618.219 129.45 618.547 128.93 618.713 128.324 618.713 127.631 618.713 126.419 618.263 125.544 617.363 125.006 616.459 124.469 615.369 124.044 614.086 123.731L610.759 122.951C610.343 122.848 609.781 122.675 609.07 122.432 608.359 122.19 607.666 121.826 606.989 121.34 606.315 120.856 605.733 120.223 605.249 119.443 604.761 118.663 604.521 117.702 604.521 116.558 604.521 115.31 604.772 114.219 605.273 113.283 605.777 112.347 606.45 111.584 607.303 110.995 608.15 110.406 609.111 109.964 610.187 109.67 611.26 109.375 612.37 109.226 613.514 109.226 615.213 109.226 616.791 109.556 618.246 110.215 619.701 110.873 620.828 112 621.624 113.594L618.557 115.622Z" fill="#2E3438" transform="matrix(1 0 0 1.00165 308.869 193.363)"/><path d="M660.927 103.456C659.299 101.064 656.926 99.8696 653.805 99.8696 652.834 99.8696 651.883 99.9999 650.945 100.259 650.011 100.519 649.168 100.917 648.424 101.455 647.679 101.993 647.08 102.686 646.63 103.535 646.18 104.385 645.956 105.38 645.956 106.524 645.956 108.187 646.423 109.479 647.357 110.398 648.295 111.315 649.456 112.07 650.844 112.658 652.228 113.247 653.744 113.775 655.393 114.244 657.038 114.711 658.554 115.336 659.942 116.116 661.326 116.896 662.487 117.927 663.424 119.209 664.359 120.492 664.826 122.242 664.826 124.459 664.826 126.123 664.47 127.622 663.763 128.957 663.052 130.291 662.115 131.41 660.954 132.31 659.793 133.212 658.493 133.904 657.054 134.39 655.616 134.874 654.171 135.117 652.715 135.117 650.461 135.117 648.322 134.693 646.295 133.843 644.267 132.995 642.541 131.601 641.12 129.658L644.552 127.216C645.347 128.566 646.45 129.651 647.868 130.465 649.283 131.279 650.959 131.685 652.895 131.685 653.829 131.685 654.76 131.54 655.694 131.244 656.625 130.951 657.464 130.516 658.205 129.944 658.95 129.372 659.562 128.671 660.047 127.839 660.531 127.008 660.771 126.055 660.771 124.98 660.771 123.698 660.503 122.631 659.965 121.782 659.427 120.934 658.72 120.223 657.833 119.651 656.95 119.079 655.944 118.604 654.821 118.221 653.693 117.84 652.533 117.46 651.334 117.077 650.14 116.696 648.979 116.263 647.852 115.777 646.724 115.293 645.723 114.677 644.836 113.933 643.952 113.186 643.242 112.251 642.707 111.125 642.169 109.998 641.901 108.587 641.901 106.888 641.901 105.121 642.236 103.577 642.913 102.261 643.59 100.944 644.491 99.8526 645.618 98.9861 646.745 98.1196 648.017 97.4782 649.439 97.0619 650.861 96.6456 652.316 96.4374 653.805 96.4374 655.883 96.4374 657.772 96.7674 659.471 97.4258 661.17 98.0841 662.747 99.245 664.203 100.909L660.927 103.456Z" fill="#2E3438" transform="matrix(1 0 0 1.00165 308.869 193.363)"/><path d="M671.896 97.3734 684.115 97.3734C686.403 97.3734 688.698 97.7558 691.003 98.5174 693.308 99.2806 695.386 100.433 697.241 101.975 699.095 103.517 700.595 105.441 701.739 107.746 702.883 110.051 703.455 112.728 703.455 115.777 703.455 118.863 702.883 121.548 701.739 123.836 700.595 126.123 699.095 128.038 697.241 129.58 695.386 131.124 693.308 132.276 691.003 133.038 688.698 133.801 686.403 134.182 684.115 134.182L671.896 134.182 671.896 97.3734ZM675.64 130.75 682.92 130.75C685.726 130.75 688.16 130.326 690.224 129.477 692.285 128.627 694.001 127.5 695.369 126.097 696.74 124.694 697.752 123.1 698.412 121.315 699.068 119.529 699.4 117.685 699.4 115.777 699.4 113.872 699.068 112.026 698.412 110.24 697.752 108.456 696.74 106.862 695.369 105.458 694.002 104.055 692.285 102.928 690.224 102.078 688.16 101.23 685.726 100.805 682.92 100.805L675.64 100.805 675.64 130.75Z" fill="#2E3438" transform="matrix(1 0 0 1.00165 308.869 193.363)"/><path d="M714.682 113.334 715.203 113.334 732.516 97.3734 737.87 97.3734 719.309 114.061 738.909 134.182 733.399 134.182 715.308 115.205 714.682 115.205 714.682 134.182 710.938 134.182 710.938 97.3734 714.682 97.3734 714.682 113.334Z" fill="#2E3438" transform="matrix(1 0 0 1.00165 308.869 193.363)"/><path d="M768.231 112.97 762.46 112.97 762.46 134.182 759.028 134.182 759.028 112.97 753.883 112.97 753.883 109.851 759.028 109.851 759.028 103.197C759.028 99.9728 759.776 97.678 761.265 96.3072 762.754 94.9398 764.731 94.2544 767.191 94.2544 767.675 94.2544 768.17 94.2899 768.674 94.3577 769.175 94.4288 769.669 94.5151 770.153 94.6183L769.53 97.7373C769.114 97.634 768.681 97.5477 768.231 97.4783 767.78 97.4089 767.33 97.3734 766.88 97.3734 765.942 97.3734 765.181 97.5291 764.592 97.8422 764.003 98.1536 763.553 98.5953 763.242 99.1673 762.927 99.7393 762.72 100.408 762.615 101.169 762.514 101.933 762.46 102.747 762.46 103.613L762.46 109.851 768.231 109.851 768.231 112.97Z" fill="#2E3438" transform="matrix(1 0 0 1.00165 308.869 193.363)"/><path d="M796.875 122.017C796.875 123.853 796.557 125.551 795.914 127.111 795.274 128.671 794.38 130.022 793.236 131.166 792.092 132.31 790.732 133.203 789.155 133.843 787.577 134.485 785.838 134.806 783.932 134.806 782.06 134.806 780.334 134.485 778.757 133.843 777.18 133.203 775.822 132.31 774.678 131.166 773.534 130.022 772.641 128.671 772.001 127.111 771.358 125.551 771.04 123.853 771.04 122.017 771.04 120.179 771.358 118.482 772.001 116.922 772.641 115.361 773.534 114.011 774.678 112.867 775.822 111.723 777.18 110.831 778.757 110.189 780.334 109.548 782.06 109.227 783.932 109.227 785.838 109.227 787.577 109.548 789.155 110.189 790.732 110.831 792.092 111.723 793.236 112.867 794.38 114.011 795.274 115.361 795.914 116.922 796.557 118.482 796.875 120.179 796.875 122.017ZM793.135 122.017C793.135 120.665 792.915 119.399 792.485 118.221 792.048 117.043 791.436 116.021 790.637 115.153 789.842 114.288 788.877 113.603 787.753 113.1 786.626 112.598 785.354 112.347 783.932 112.347 782.51 112.347 781.234 112.598 780.111 113.1 778.984 113.603 778.029 114.288 777.251 115.153 776.472 116.021 775.863 117.043 775.43 118.221 774.996 119.399 774.78 120.665 774.78 122.017 774.78 123.368 774.996 124.633 775.43 125.811 775.863 126.991 776.472 128.013 777.251 128.88 778.029 129.746 778.984 130.43 780.111 130.932 781.234 131.435 782.51 131.685 783.932 131.685 785.354 131.685 786.626 131.435 787.753 130.932 788.877 130.43 789.842 129.746 790.637 128.88 791.436 128.013 792.048 126.991 792.485 125.811 792.915 124.633 793.135 123.368 793.135 122.017Z" fill="#2E3438" transform="matrix(1 0 0 1.00165 308.869 193.363)"/><path d="M803.478 117.441C803.478 116.368 803.451 115.275 803.401 114.166 803.346 113.058 803.302 111.619 803.269 109.851L806.65 109.851 806.65 114.375 806.751 114.375C806.995 113.716 807.34 113.083 807.794 112.476 808.244 111.87 808.789 111.325 809.429 110.839 810.072 110.354 810.816 109.964 811.666 109.67 812.516 109.375 813.477 109.227 814.55 109.227 815.521 109.227 816.371 109.331 817.098 109.54L816.421 112.919C815.971 112.745 815.311 112.659 814.448 112.659 813.128 112.659 812.004 112.911 811.067 113.412 810.133 113.914 809.351 114.556 808.728 115.336 808.105 116.116 807.645 116.957 807.35 117.857 807.056 118.759 806.907 119.624 806.907 120.457L806.907 134.182 803.478 134.182 803.478 117.441Z" fill="#2E3438" transform="matrix(1 0 0 1.00165 308.869 193.363)"/><path d="M835.555 126.644C835.9 128.203 836.547 129.433 837.484 130.335 838.425 131.237 839.732 131.685 841.4 131.685 842.757 131.685 843.864 131.418 844.717 130.88 845.57 130.343 846.23 129.651 846.701 128.8 847.168 127.952 847.493 126.981 847.665 125.889 847.838 124.798 847.926 123.681 847.926 122.537L847.926 97.3734 851.669 97.3734 851.669 124.095C851.669 125.344 851.507 126.617 851.175 127.917 850.847 129.216 850.275 130.396 849.462 131.452 848.647 132.51 847.581 133.385 846.264 134.078 844.947 134.771 843.299 135.117 841.326 135.117 838.794 135.117 836.679 134.468 834.983 133.168 833.284 131.868 832.228 129.954 831.811 127.422L835.555 126.644Z" fill="#2E3438" transform="matrix(1 0 0 1.00165 308.869 193.363)"/><path d="M875.48 119.26 875.48 118.638C875.48 114.444 873.402 112.347 869.242 112.347 866.399 112.347 863.922 113.3 861.806 115.205L859.728 112.762C862.016 110.406 865.448 109.226 870.021 109.226 871.199 109.226 872.336 109.401 873.426 109.748 874.519 110.095 875.463 110.623 876.262 111.333 877.058 112.044 877.697 112.936 878.185 114.011 878.669 115.085 878.912 116.368 878.912 117.857L878.912 128.722C878.912 129.658 878.956 130.638 879.041 131.66 879.129 132.682 879.224 133.523 879.329 134.182L876.002 134.182C875.897 133.593 875.819 132.951 875.768 132.257 875.714 131.565 875.69 130.89 875.69 130.23L875.585 130.23C874.58 131.86 873.392 133.029 872.025 133.74 870.654 134.449 868.982 134.806 867.005 134.806 865.932 134.806 864.893 134.657 863.888 134.364 862.883 134.07 861.989 133.618 861.211 133.012 860.429 132.406 859.806 131.66 859.339 130.777 858.872 129.893 858.638 128.861 858.638 127.683 858.638 125.708 859.146 124.156 860.172 123.031 861.194 121.904 862.477 121.063 864.017 120.509 865.56 119.954 867.205 119.607 868.955 119.468 870.705 119.331 872.309 119.26 873.764 119.26L875.48 119.26ZM873.714 122.068C872.847 122.068 871.764 122.112 870.464 122.198 869.165 122.285 867.916 122.493 866.721 122.823 865.526 123.153 864.504 123.662 863.654 124.356 862.805 125.05 862.378 126.003 862.378 127.216 862.378 128.013 862.544 128.697 862.872 129.269 863.204 129.841 863.644 130.308 864.199 130.672 864.754 131.036 865.37 131.296 866.044 131.452 866.721 131.608 867.405 131.685 868.098 131.685 869.347 131.685 870.43 131.479 871.348 131.063 872.265 130.646 873.037 130.083 873.663 129.372 874.286 128.663 874.742 127.83 875.04 126.878 875.331 125.925 875.48 124.911 875.48 123.836L875.48 122.068 873.714 122.068Z" fill="#2E3438" transform="matrix(1 0 0 1.00165 308.869 193.363)"/><path d="M897.575 134.182 893.727 134.182 883.851 109.851 887.905 109.851 895.704 130.335 895.809 130.335 903.553 109.851 907.452 109.851 897.575 134.182Z" fill="#2E3438" transform="matrix(1 0 0 1.00165 308.869 193.363)"/><path d="M927.52 119.26 927.52 118.638C927.52 114.444 925.441 112.347 921.282 112.347 918.438 112.347 915.961 113.3 913.845 115.205L911.767 112.762C914.055 110.406 917.487 109.226 922.06 109.226 923.238 109.226 924.375 109.401 925.465 109.748 926.558 110.095 927.503 110.623 928.301 111.333 929.097 112.044 929.736 112.936 930.224 114.011 930.708 115.085 930.952 116.368 930.952 117.857L930.952 128.722C930.952 129.658 930.996 130.638 931.08 131.66 931.168 132.682 931.263 133.523 931.368 134.182L928.041 134.182C927.936 133.593 927.858 132.951 927.807 132.257 927.753 131.565 927.729 130.89 927.729 130.23L927.625 130.23C926.619 131.86 925.431 133.029 924.064 133.74 922.693 134.449 921.021 134.806 919.044 134.806 917.971 134.806 916.932 134.657 915.927 134.364 914.922 134.07 914.028 133.618 913.25 133.012 912.468 132.406 911.845 131.66 911.378 130.777 910.911 129.893 910.678 128.861 910.678 127.683 910.678 125.708 911.185 124.156 912.211 123.031 913.233 121.904 914.516 121.063 916.056 120.509 917.599 119.954 919.244 119.607 920.994 119.468 922.744 119.331 924.348 119.26 925.804 119.26L927.52 119.26ZM925.753 122.068C924.886 122.068 923.803 122.112 922.503 122.198 921.204 122.285 919.955 122.493 918.76 122.823 917.565 123.153 916.543 123.662 915.693 124.356 914.844 125.05 914.417 126.003 914.417 127.216 914.417 128.013 914.583 128.697 914.912 129.269 915.243 129.841 915.683 130.308 916.238 130.672 916.794 131.036 917.41 131.296 918.083 131.452 918.76 131.608 919.444 131.685 920.138 131.685 921.387 131.685 922.47 131.479 923.387 131.063 924.304 130.646 925.076 130.083 925.702 129.372 926.325 128.663 926.782 127.83 927.08 126.878 927.371 125.925 927.52 124.911 927.52 123.836L927.52 122.068 925.753 122.068Z" fill="#2E3438" transform="matrix(1 0 0 1.00165 308.869 193.363)"/><path d="M957.569 103.456C955.941 101.064 953.568 99.8696 950.447 99.8696 949.476 99.8696 948.525 99.9999 947.587 100.259 946.653 100.519 945.81 100.917 945.066 101.455 944.321 101.993 943.722 102.686 943.272 103.535 942.822 104.385 942.598 105.38 942.598 106.524 942.598 108.187 943.065 109.479 943.999 110.398 944.937 111.315 946.098 112.07 947.486 112.658 948.87 113.247 950.386 113.775 952.035 114.244 953.68 114.711 955.196 115.336 956.584 116.116 957.968 116.896 959.129 117.927 960.066 119.209 961 120.492 961.468 122.242 961.468 124.459 961.468 126.123 961.112 127.622 960.405 128.957 959.694 130.291 958.756 131.41 957.596 132.31 956.435 133.212 955.135 133.904 953.696 134.39 952.258 134.874 950.813 135.117 949.357 135.117 947.103 135.117 944.964 134.693 942.937 133.843 940.909 132.995 939.183 131.601 937.762 129.658L941.194 127.216C941.989 128.566 943.092 129.651 944.51 130.465 945.925 131.279 947.601 131.685 949.537 131.685 950.471 131.685 951.402 131.54 952.336 131.244 953.267 130.951 954.106 130.516 954.847 129.944 955.592 129.372 956.205 128.671 956.689 127.839 957.173 127.008 957.413 126.055 957.413 124.98 957.413 123.698 957.145 122.631 956.607 121.782 956.069 120.934 955.362 120.223 954.475 119.651 953.592 119.079 952.586 118.604 951.463 118.221 950.336 117.84 949.175 117.46 947.976 117.077 946.782 116.696 945.621 116.263 944.494 115.777 943.367 115.293 942.365 114.677 941.478 113.933 940.594 113.186 939.884 112.251 939.349 111.125 938.811 109.998 938.543 108.587 938.543 106.888 938.543 105.121 938.878 103.577 939.555 102.261 940.232 100.944 941.133 99.8526 942.26 98.9861 943.387 98.1196 944.659 97.4782 946.081 97.0619 947.503 96.6456 948.958 96.4374 950.447 96.4374 952.525 96.4374 954.414 96.7674 956.113 97.4258 957.812 98.0841 959.39 99.245 960.845 100.909L957.569 103.456Z" fill="#2E3438" transform="matrix(1 0 0 1.00165 308.869 193.363)"/><path d="M985.539 115.569C984.951 114.669 984.128 113.906 983.069 113.283 982.013 112.658 980.808 112.347 979.457 112.347 978.036 112.312 976.76 112.537 975.636 113.022 974.509 113.508 973.548 114.183 972.749 115.05 971.953 115.916 971.348 116.947 970.931 118.143 970.515 119.338 970.305 120.631 970.305 122.017 970.305 123.403 970.515 124.694 970.931 125.889 971.348 127.086 971.953 128.116 972.749 128.983 973.548 129.849 974.509 130.526 975.636 131.01 976.76 131.496 978.036 131.721 979.457 131.685 980.808 131.685 982.013 131.374 983.069 130.75 984.128 130.127 984.951 129.365 985.539 128.463L988.345 130.594C987.134 132.015 985.763 133.065 984.24 133.74 982.713 134.415 981.119 134.77 979.457 134.806 977.481 134.84 975.697 134.537 974.103 133.896 972.508 133.254 971.148 132.362 970.021 131.218 968.894 130.074 968.037 128.715 967.448 127.136 966.856 125.561 966.565 123.853 966.565 122.017 966.565 120.179 966.856 118.473 967.448 116.896 968.037 115.319 968.894 113.958 970.021 112.814 971.148 111.67 972.508 110.778 974.103 110.137 975.697 109.496 977.481 109.193 979.457 109.226 981.119 109.262 982.713 109.617 984.24 110.293 985.763 110.97 987.134 112.017 988.345 113.439L985.539 115.569Z" fill="#2E3438" transform="matrix(1 0 0 1.00165 308.869 193.363)"/><path d="M993.233 117.441C993.233 116.368 993.209 115.275 993.155 114.166 993.104 113.058 993.06 111.619 993.026 109.851L996.404 109.851 996.404 114.375 996.509 114.375C996.749 113.716 997.098 113.083 997.548 112.476 997.998 111.87 998.543 111.325 999.186 110.839 999.826 110.354 1000.57 109.964 1001.42 109.67 1002.27 109.375 1003.23 109.227 1004.31 109.227 1005.28 109.227 1006.12 109.331 1006.86 109.54L1006.18 112.919C1005.73 112.745 1005.07 112.659 1004.2 112.659 1002.89 112.659 1001.76 112.911 1000.82 113.412 999.887 113.914 999.109 114.556 998.486 115.336 997.86 116.116 997.399 116.957 997.108 117.857 996.81 118.759 996.665 119.624 996.665 120.457L996.665 134.182 993.233 134.182 993.233 117.441Z" fill="#2E3438" transform="matrix(1 0 0 1.00165 308.869 193.363)"/><path d="M1015.12 100.492C1015.12 101.222 1014.86 101.819 1014.34 102.286 1013.82 102.755 1013.25 102.989 1012.62 102.989 1012 102.989 1011.43 102.755 1010.91 102.286 1010.39 101.819 1010.13 101.222 1010.13 100.492 1010.13 99.7646 1010.39 99.1673 1010.91 98.7002 1011.43 98.2314 1012 97.9978 1012.62 97.9978 1013.25 97.9978 1013.82 98.2314 1014.34 98.7002 1014.86 99.1673 1015.12 99.7646 1015.12 100.492ZM1014.34 134.182 1010.91 134.182 1010.91 109.851 1014.34 109.851 1014.34 134.182Z" fill="#2E3438" transform="matrix(1 0 0 1.00165 308.869 193.363)"/><path d="M1022.6 109.851 1026.04 109.851 1026.04 113.906 1026.14 113.906C1026.69 113.075 1027.35 112.364 1028.12 111.775 1028.88 111.186 1029.68 110.7 1030.51 110.32 1031.34 109.937 1032.2 109.661 1033.08 109.487 1033.96 109.314 1034.8 109.226 1035.6 109.226 1037.51 109.226 1039.25 109.548 1040.83 110.189 1042.41 110.831 1043.77 111.723 1044.91 112.867 1046.05 114.011 1046.94 115.361 1047.59 116.921 1048.23 118.482 1048.55 120.179 1048.55 122.017 1048.55 123.853 1048.23 125.551 1047.59 127.111 1046.94 128.671 1046.05 130.022 1044.91 131.166 1043.77 132.31 1042.41 133.203 1040.83 133.843 1039.25 134.484 1037.51 134.806 1035.6 134.806 1034.8 134.806 1033.96 134.718 1033.08 134.545 1032.2 134.371 1031.34 134.095 1030.51 133.714 1029.68 133.332 1028.88 132.848 1028.12 132.257 1027.35 131.668 1026.69 130.958 1026.14 130.127L1026.04 130.127 1026.04 149.154 1022.6 149.154 1022.6 109.851ZM1044.8 122.017C1044.8 120.665 1044.59 119.399 1044.16 118.221 1043.72 117.043 1043.11 116.021 1042.31 115.153 1041.51 114.288 1040.55 113.603 1039.42 113.1 1038.3 112.598 1037.02 112.347 1035.6 112.347 1034.18 112.347 1032.88 112.598 1031.7 113.1 1030.53 113.603 1029.5 114.288 1028.64 115.153 1027.77 116.021 1027.09 117.043 1026.61 118.221 1026.12 119.399 1025.88 120.665 1025.88 122.017 1025.88 123.368 1026.12 124.633 1026.61 125.811 1027.09 126.991 1027.77 128.013 1028.64 128.879 1029.5 129.746 1030.52 130.43 1031.7 130.932 1032.88 131.435 1034.18 131.685 1035.6 131.685 1037.02 131.685 1038.3 131.435 1039.42 130.932 1040.55 130.43 1041.51 129.746 1042.31 128.879 1043.11 128.013 1043.72 126.991 1044.16 125.811 1044.59 124.633 1044.8 123.368 1044.8 122.017Z" fill="#2E3438" transform="matrix(1 0 0 1.00165 308.869 193.363)"/><path d="M1066.95 112.97 1059.93 112.97 1059.93 127.319C1059.93 128.221 1060.02 128.957 1060.19 129.529 1060.37 130.1 1060.61 130.543 1060.92 130.854 1061.23 131.166 1061.61 131.382 1062.04 131.504 1062.47 131.626 1062.95 131.685 1063.47 131.685 1064.06 131.685 1064.66 131.601 1065.29 131.426 1065.91 131.254 1066.48 131.029 1067 130.75L1067.16 133.921C1065.88 134.51 1064.33 134.806 1062.53 134.806 1061.87 134.806 1061.19 134.718 1060.48 134.545 1059.77 134.371 1059.12 134.043 1058.53 133.557 1057.94 133.073 1057.45 132.415 1057.07 131.582 1056.69 130.75 1056.5 129.658 1056.5 128.308L1056.5 112.97 1051.35 112.97 1051.35 109.851 1056.5 109.851 1056.5 102.989 1059.93 102.989 1059.93 109.851 1066.95 109.851 1066.95 112.97Z" fill="#2E3438" transform="matrix(1 0 0 1.00165 308.869 193.363)"/><path d="M378.872 211.921C377.81 213.511 376.5 215.014 374.939 216.425 373.376 217.84 371.595 219.066 369.592 220.094 367.588 221.127 365.422 221.936 363.096 222.525 360.768 223.114 358.307 223.408 355.715 223.408 351.061 223.408 346.745 222.582 342.768 220.934 338.791 219.285 335.346 217.001 332.428 214.083 329.51 211.169 327.226 207.707 325.578 203.699 323.929 199.695 323.103 195.305 323.103 190.533 323.103 185.76 323.929 181.371 325.578 177.363 327.226 173.356 329.51 169.893 332.428 166.979 335.346 164.063 338.791 161.78 342.768 160.13 346.745 158.48 351.061 157.654 355.715 157.654 359.604 157.654 363.492 158.421 367.381 159.952 371.27 161.486 374.598 164.019 377.37 167.553L371.802 171.707C371.152 170.705 370.269 169.705 369.148 168.702 368.031 167.702 366.749 166.818 365.307 166.052 363.861 165.287 362.315 164.667 360.666 164.195 359.015 163.725 357.366 163.488 355.715 163.488 351.707 163.488 348.116 164.226 344.934 165.698 341.753 167.17 339.055 169.143 336.848 171.619 334.638 174.094 332.943 176.964 331.765 180.237 330.587 183.506 329.998 186.938 329.998 190.533 329.998 194.127 330.587 197.559 331.765 200.829 332.943 204.099 334.638 206.969 336.848 209.446 339.055 211.921 341.753 213.894 344.934 215.366 348.116 216.838 351.707 217.576 355.715 217.576 357.366 217.576 359.001 217.431 360.622 217.133 362.24 216.838 363.831 216.338 365.395 215.63 366.955 214.926 368.427 213.968 369.812 212.76 371.196 211.552 372.479 210.035 373.657 208.208L378.872 211.921Z" fill="#2E3438" transform="matrix(1 0 0 1.00165 308.869 193.363)"/><path d="M429.246 201.137C429.246 204.261 428.701 207.148 427.612 209.798 426.522 212.448 425.005 214.747 423.059 216.693 421.116 218.636 418.805 220.155 416.124 221.245 413.44 222.332 410.482 222.88 407.239 222.88 404.058 222.88 401.127 222.332 398.446 221.245 395.765 220.155 393.453 218.636 391.507 216.693 389.565 214.747 388.048 212.449 386.958 209.798 385.865 207.148 385.324 204.261 385.324 201.137 385.324 198.016 385.865 195.126 386.958 192.476 388.048 189.825 389.565 187.527 391.507 185.581 393.453 183.638 395.765 182.122 398.446 181.032 401.126 179.942 404.058 179.394 407.239 179.394 410.482 179.394 413.44 179.942 416.124 181.032 418.805 182.122 421.116 183.638 423.059 185.581 425.005 187.527 426.522 189.825 427.612 192.476 428.701 195.126 429.246 198.016 429.246 201.137ZM422.883 201.137C422.883 198.839 422.514 196.69 421.78 194.686 421.042 192.682 419.996 190.946 418.642 189.47 417.285 187.998 415.65 186.833 413.738 185.98 411.822 185.128 409.656 184.698 407.239 184.698 404.823 184.698 402.66 185.127 400.744 185.98 398.828 186.833 397.211 187.998 395.884 189.47 394.557 190.946 393.528 192.682 392.79 194.686 392.052 196.689 391.687 198.839 391.687 201.137 391.687 203.435 392.052 205.588 392.79 207.588 393.528 209.592 394.557 211.332 395.884 212.804 397.211 214.276 398.828 215.441 400.744 216.294 402.66 217.15 404.823 217.576 407.239 217.576 409.656 217.576 411.822 217.15 413.738 216.294 415.65 215.441 417.285 214.276 418.642 212.804 419.996 211.332 421.042 209.592 421.78 207.588 422.514 205.588 422.883 203.435 422.883 201.137Z" fill="#2E3438" transform="matrix(1 0 0 1.00165 308.869 193.363)"/><path d="M439.854 189.646C439.854 188.116 439.81 186.586 439.722 185.053 439.634 183.52 439.529 181.99 439.41 180.457L445.686 180.457 445.686 186.732 445.862 186.732C447.276 184.315 449.236 182.487 451.741 181.252 454.245 180.013 456.733 179.394 459.207 179.394 460.328 179.394 461.519 179.516 462.788 179.749 464.054 179.986 465.276 180.413 466.457 181.032 467.635 181.648 468.739 182.518 469.771 183.638 470.8 184.759 471.67 186.201 472.377 187.967 473.555 185.317 475.427 183.225 477.989 181.692 480.551 180.162 483.218 179.394 485.987 179.394 491.291 179.394 495.207 180.795 497.742 183.594 500.273 186.393 501.543 190.384 501.543 195.569L501.543 221.817 495.711 221.817 495.711 197.691C495.711 193.508 494.973 190.296 493.501 188.055 492.025 185.818 489.287 184.698 485.279 184.698 483.1 184.698 481.272 185.127 479.8 185.98 478.327 186.833 477.136 187.967 476.222 189.382 475.308 190.797 474.645 192.401 474.232 194.198 473.819 195.996 473.616 197.867 473.616 199.81L473.616 221.817 467.781 221.817 467.781 197.691C467.781 193.508 467.043 190.296 465.57 188.055 464.098 185.818 461.36 184.698 457.353 184.698 457.001 184.698 456.188 184.816 454.922 185.053 453.653 185.287 452.343 185.936 450.989 186.996 449.632 188.055 448.41 189.646 447.32 191.768 446.231 193.89 445.686 196.838 445.686 200.606L445.686 221.817 439.854 221.817 439.854 189.646Z" fill="#2E3438" transform="matrix(1 0 0 1.00165 308.869 193.363)"/><path d="M515.152 180.457 520.984 180.457 520.984 187.351 521.16 187.351C522.105 185.936 523.225 184.728 524.521 183.726 525.814 182.724 527.171 181.902 528.586 181.252 530.001 180.602 531.456 180.132 532.959 179.837 534.462 179.543 535.89 179.394 537.248 179.394 540.487 179.394 543.448 179.942 546.129 181.032 548.81 182.122 551.121 183.638 553.068 185.581 555.01 187.527 556.527 189.825 557.62 192.476 558.71 195.126 559.255 198.016 559.255 201.137 559.255 204.261 558.71 207.148 557.62 209.798 556.527 212.449 555.01 214.747 553.068 216.693 551.121 218.636 548.81 220.155 546.129 221.245 543.448 222.332 540.487 222.88 537.248 222.88 535.89 222.88 534.462 222.731 532.959 222.437 531.456 222.142 530.001 221.672 528.586 221.022 527.171 220.375 525.814 219.55 524.521 218.548 523.225 217.546 522.105 216.338 521.16 214.926L520.984 214.926 520.984 247.273 515.152 247.273 515.152 180.457ZM552.891 201.137C552.891 198.839 552.523 196.69 551.785 194.686 551.047 192.682 550.004 190.946 548.647 189.47 547.293 187.998 545.658 186.833 543.743 185.98 541.827 185.128 539.661 184.698 537.248 184.698 534.831 184.698 532.621 185.128 530.617 185.98 528.613 186.833 526.877 187.998 525.405 189.47 523.929 190.946 522.781 192.682 521.956 194.686 521.13 196.69 520.72 198.839 520.72 201.137 520.72 203.435 521.13 205.588 521.956 207.588 522.781 209.592 523.929 211.332 525.405 212.804 526.877 214.276 528.613 215.441 530.617 216.294 532.621 217.15 534.831 217.576 537.248 217.576 539.661 217.576 541.827 217.15 543.743 216.294 545.658 215.441 547.293 214.276 548.647 212.804 550.004 211.332 551.047 209.592 551.785 207.588 552.523 205.588 552.891 203.435 552.891 201.137Z" fill="#2E3438" transform="matrix(1 0 0 1.00165 308.869 193.363)"/><path d="M610.955 201.137C610.955 204.261 610.41 207.148 609.321 209.798 608.227 212.449 606.711 214.747 604.768 216.693 602.822 218.636 600.51 220.155 597.83 221.245 595.149 222.332 592.187 222.88 588.948 222.88 585.767 222.88 582.836 222.332 580.155 221.245 577.471 220.155 575.159 218.636 573.216 216.693 571.274 214.747 569.754 212.449 568.664 209.798 567.574 207.148 567.029 204.261 567.029 201.137 567.029 198.016 567.574 195.126 568.664 192.476 569.754 189.825 571.274 187.527 573.216 185.581 575.159 183.638 577.471 182.122 580.155 181.032 582.836 179.942 585.767 179.394 588.948 179.394 592.187 179.394 595.149 179.942 597.83 181.032 600.51 182.122 602.822 183.638 604.768 185.581 606.711 187.527 608.227 189.825 609.321 192.476 610.41 195.126 610.955 198.016 610.955 201.137ZM604.592 201.137C604.592 198.839 604.223 196.69 603.485 194.686 602.748 192.682 601.705 190.946 600.348 189.47 598.994 187.998 597.359 186.833 595.443 185.98 593.528 185.127 591.362 184.698 588.948 184.698 586.532 184.698 584.365 185.127 582.453 185.98 580.537 186.833 578.916 187.998 577.593 189.47 576.266 190.946 575.234 192.682 574.499 194.686 573.761 196.689 573.392 198.839 573.392 201.137 573.392 203.435 573.761 205.588 574.499 207.588 575.234 209.592 576.266 211.332 577.593 212.804 578.916 214.276 580.537 215.441 582.453 216.294 584.365 217.15 586.532 217.576 588.948 217.576 591.362 217.576 593.528 217.15 595.443 216.294 597.359 215.441 598.994 214.276 600.348 212.804 601.705 211.332 602.748 209.592 603.485 207.588 604.223 205.588 604.592 203.435 604.592 201.137Z" fill="#2E3438" transform="matrix(1 0 0 1.00165 308.869 193.363)"/><path d="M627.127 180.457C627.246 181.577 627.317 182.68 627.347 183.77 627.378 184.86 627.391 185.967 627.391 187.084L627.567 187.084C628.217 185.967 629.04 184.935 630.045 183.99 631.043 183.049 632.164 182.24 633.402 181.56 634.638 180.883 635.951 180.355 637.335 179.969 638.72 179.587 640.087 179.394 641.444 179.394 646.748 179.394 650.664 180.795 653.199 183.594 655.731 186.393 657 190.384 657 195.569L657 221.817 651.165 221.817 651.165 198.927C651.165 194.33 650.37 190.81 648.779 188.367 647.188 185.923 644.244 184.698 639.942 184.698 639.647 184.698 638.821 184.816 637.467 185.053 636.11 185.287 634.682 185.936 633.182 186.996 631.68 188.055 630.336 189.646 629.158 191.768 627.98 193.89 627.391 196.838 627.391 200.606L627.391 221.817 621.56 221.817 621.56 189.558C621.56 188.441 621.516 187.026 621.427 185.317 621.34 183.608 621.235 181.99 621.116 180.457L627.127 180.457Z" fill="#2E3438" transform="matrix(1 0 0 1.00165 308.869 193.363)"/><path d="M674.763 202.728C674.942 204.792 675.44 206.735 676.266 208.56 677.092 210.387 678.182 211.965 679.539 213.288 680.893 214.615 682.453 215.661 684.22 216.426 685.99 217.194 687.902 217.576 689.967 217.576 693.088 217.576 695.785 216.855 698.053 215.41 700.321 213.968 702.043 212.303 703.225 210.418L707.73 214.131C705.255 217.251 702.531 219.492 699.556 220.846 696.581 222.2 693.382 222.88 689.967 222.88 686.9 222.88 684.057 222.332 681.438 221.245 678.814 220.155 676.56 218.636 674.675 216.693 672.79 214.747 671.304 212.449 670.214 209.798 669.121 207.148 668.579 204.261 668.579 201.137 668.579 198.016 669.107 195.126 670.17 192.476 671.229 189.825 672.702 187.527 674.587 185.581 676.472 183.638 678.682 182.122 681.218 181.032 683.749 179.942 686.487 179.394 689.435 179.394 692.56 179.394 695.359 179.956 697.833 181.076 700.307 182.196 702.382 183.682 704.064 185.537 705.743 187.395 707.022 189.575 707.906 192.08 708.792 194.584 709.232 197.248 709.232 200.078L709.232 202.728 674.763 202.728ZM702.869 197.955C702.869 194.009 701.691 190.81 699.336 188.367 696.977 185.923 693.677 184.698 689.436 184.698 687.55 184.698 685.723 185.067 683.956 185.805 682.189 186.539 680.642 187.527 679.315 188.763 677.992 190.002 676.929 191.416 676.134 193.007 675.338 194.598 674.942 196.246 674.942 197.955L702.869 197.955Z" fill="#2E3438" transform="matrix(1 0 0 1.00165 308.869 193.363)"/><path d="M725.408 180.457C725.526 181.577 725.597 182.68 725.628 183.77 725.658 184.86 725.672 185.967 725.672 187.084L725.848 187.084C726.498 185.967 727.32 184.935 728.325 183.99 729.324 183.049 730.444 182.24 731.683 181.56 732.918 180.883 734.232 180.355 735.616 179.969 737 179.587 738.368 179.394 739.725 179.394 745.029 179.394 748.945 180.795 751.48 183.594 754.012 186.393 755.281 190.384 755.281 195.569L755.281 221.817 749.446 221.817 749.446 198.927C749.446 194.33 748.65 190.81 747.06 188.367 745.469 185.923 742.524 184.698 738.222 184.698 737.928 184.698 737.102 184.816 735.748 185.053 734.391 185.287 732.962 185.936 731.463 186.996 729.96 188.055 728.616 189.646 727.439 191.768 726.261 193.89 725.672 196.838 725.672 200.606L725.672 221.817 719.84 221.817 719.84 189.558C719.84 188.441 719.796 187.026 719.708 185.317 719.62 183.608 719.515 181.99 719.397 180.457L725.408 180.457Z" fill="#2E3438" transform="matrix(1 0 0 1.00165 308.869 193.363)"/><path d="M790.366 185.76 778.435 185.76 778.435 210.15C778.435 211.684 778.581 212.936 778.875 213.907 779.17 214.879 779.583 215.63 780.114 216.161 780.645 216.693 781.275 217.062 782.013 217.265 782.751 217.475 783.56 217.576 784.443 217.576 785.445 217.576 786.477 217.431 787.537 217.133 788.599 216.838 789.571 216.456 790.454 215.985L790.718 221.377C788.539 222.376 785.915 222.88 782.852 222.88 781.735 222.88 780.571 222.731 779.363 222.437 778.154 222.142 777.051 221.584 776.049 220.758 775.047 219.932 774.221 218.812 773.575 217.4 772.925 215.985 772.6 214.131 772.6 211.832L772.6 185.76 763.851 185.76 763.851 180.457 772.6 180.457 772.6 168.791 778.435 168.791 778.435 180.457 790.366 180.457 790.366 185.76Z" fill="#2E3438" transform="matrix(1 0 0 1.00165 308.869 193.363)"/><path d="M820.239 190.265C819.352 188.56 818.175 187.202 816.702 186.2 815.23 185.199 813.433 184.698 811.31 184.698 810.309 184.698 809.293 184.816 808.261 185.053 807.232 185.287 806.301 185.656 805.479 186.156 804.653 186.657 803.99 187.29 803.489 188.055 802.988 188.824 802.737 189.768 802.737 190.885 802.737 192.831 803.414 194.242 804.771 195.126 806.125 196.013 808.159 196.778 810.871 197.424L816.79 198.839C819.677 199.489 822.077 200.799 823.993 202.772 825.909 204.748 826.866 207.206 826.866 210.15 826.866 212.391 826.409 214.32 825.496 215.942 824.582 217.563 823.377 218.886 821.874 219.919 820.371 220.951 818.648 221.702 816.702 222.173 814.759 222.643 812.783 222.88 810.782 222.88 807.601 222.88 804.639 222.274 801.898 221.066 799.16 219.861 796.817 217.783 794.871 214.835L799.911 211.389C801.089 213.274 802.575 214.777 804.372 215.898 806.169 217.018 808.305 217.576 810.782 217.576 811.96 217.576 813.138 217.444 814.316 217.177 815.494 216.913 816.54 216.5 817.454 215.942 818.367 215.383 819.102 214.659 819.664 213.775 820.222 212.892 820.503 211.863 820.503 210.682 820.503 208.62 819.735 207.135 818.205 206.217 816.672 205.307 814.817 204.583 812.637 204.055L806.981 202.728C806.274 202.552 805.316 202.257 804.108 201.844 802.9 201.432 801.722 200.815 800.574 199.99 799.424 199.164 798.435 198.087 797.613 196.761 796.787 195.437 796.374 193.802 796.374 191.856 796.374 189.737 796.8 187.879 797.657 186.288 798.51 184.698 799.66 183.405 801.102 182.4 802.548 181.398 804.182 180.65 806.01 180.145 807.834 179.648 809.72 179.394 811.666 179.394 814.55 179.394 817.234 179.956 819.708 181.076 822.182 182.196 824.098 184.109 825.452 186.82L820.239 190.265Z" fill="#2E3438" transform="matrix(1 0 0 1.00165 308.869 193.363)"/><path d="M876.445 159.776C874.56 162.78 872.898 165.698 871.453 168.526 870.007 171.352 868.785 174.226 867.784 177.143 866.782 180.057 866.03 183.08 865.533 186.2 865.032 189.325 864.781 192.713 864.781 196.365 864.781 200.02 865.032 203.378 865.533 206.441 866.03 209.504 866.755 212.449 867.696 215.278 868.64 218.108 869.818 220.907 871.233 223.675 872.647 226.444 874.265 229.358 876.093 232.425L871.409 235.958C867.462 230.421 864.396 224.234 862.216 217.4 860.036 210.563 858.946 203.554 858.946 196.365 858.946 189.531 860.023 182.667 862.172 175.772 864.324 168.879 867.52 162.547 871.764 156.771L876.445 159.776Z" fill="#2E3438" transform="matrix(1 0 0 1.00165 308.869 193.363)"/><path d="M883.516 155.004 889.351 155.004 889.351 187.351 889.527 187.351C890.468 185.936 891.588 184.728 892.884 183.726 894.181 182.724 895.538 181.902 896.949 181.252 898.364 180.602 899.823 180.132 901.326 179.837 902.828 179.543 904.257 179.394 905.611 179.394 908.85 179.394 911.811 179.942 914.495 181.032 917.173 182.122 919.488 183.638 921.43 185.581 923.377 187.527 924.893 189.825 925.983 192.476 927.073 195.126 927.618 198.016 927.618 201.137 927.618 204.261 927.073 207.148 925.983 209.798 924.893 212.449 923.377 214.747 921.43 216.693 919.488 218.636 917.173 220.155 914.495 221.245 911.811 222.332 908.85 222.88 905.611 222.88 904.257 222.88 902.828 222.731 901.326 222.437 899.823 222.142 898.364 221.672 896.949 221.022 895.538 220.375 894.181 219.55 892.884 218.548 891.588 217.546 890.468 216.338 889.527 214.926L889.351 214.926 889.351 221.817 883.516 221.817 883.516 155.004ZM921.255 201.137C921.255 198.839 920.886 196.69 920.151 194.686 919.413 192.682 918.367 190.946 917.014 189.47 915.656 187.998 914.021 186.833 912.109 185.98 910.193 185.128 908.027 184.698 905.611 184.698 903.194 184.698 900.987 185.128 898.983 185.98 896.98 186.833 895.24 187.998 893.768 189.47 892.295 190.946 891.148 192.682 890.322 194.686 889.496 196.69 889.083 198.839 889.083 201.137 889.083 203.435 889.496 205.588 890.322 207.588 891.148 209.592 892.295 211.332 893.768 212.804 895.24 214.276 896.98 215.441 898.983 216.294 900.987 217.15 903.194 217.576 905.611 217.576 908.027 217.576 910.193 217.15 912.109 216.294 914.021 215.441 915.656 214.276 917.014 212.804 918.367 211.332 919.413 209.592 920.151 207.588 920.886 205.588 921.255 203.435 921.255 201.137Z" fill="#2E3438" transform="matrix(1 0 0 1.00165 308.869 193.363)"/><path d="M941.583 202.728C941.759 204.792 942.26 206.735 943.086 208.56 943.908 210.387 944.998 211.965 946.355 213.288 947.709 214.615 949.273 215.661 951.04 216.426 952.806 217.194 954.722 217.576 956.783 217.576 959.907 217.576 962.602 216.855 964.869 215.41 967.137 213.968 968.863 212.303 970.041 210.418L974.549 214.131C972.075 217.251 969.347 219.492 966.372 220.846 963.397 222.2 960.202 222.88 956.783 222.88 953.72 222.88 950.877 222.332 948.254 221.245 945.634 220.155 943.38 218.636 941.495 216.693 939.61 214.747 938.12 212.449 937.03 209.798 935.94 207.148 935.396 204.261 935.396 201.137 935.396 198.016 935.927 195.126 936.986 192.476 938.046 189.825 939.518 187.527 941.407 185.581 943.292 183.638 945.499 182.122 948.034 181.032 950.566 179.942 953.307 179.394 956.255 179.394 959.376 179.394 962.175 179.956 964.649 181.076 967.123 182.196 969.202 183.682 970.88 185.537 972.559 187.395 973.842 189.575 974.725 192.08 975.609 194.584 976.052 197.248 976.052 200.078L976.052 202.728 941.583 202.728ZM969.689 197.955C969.689 194.009 968.508 190.81 966.152 188.367 963.796 185.923 960.496 184.698 956.255 184.698 954.367 184.698 952.542 185.067 950.776 185.805 949.005 186.539 947.459 187.527 946.135 188.763 944.808 190.002 943.749 191.416 942.954 193.007 942.158 194.598 941.759 196.246 941.759 197.955L969.689 197.955Z" fill="#2E3438" transform="matrix(1 0 0 1.00165 308.869 193.363)"/><path d="M1008.04 185.76 996.113 185.76 996.113 210.15C996.113 211.684 996.259 212.936 996.553 213.907 996.848 214.879 997.26 215.63 997.792 216.161 998.323 216.693 998.953 217.062 999.691 217.265 1000.43 217.475 1001.24 217.576 1002.12 217.576 1003.12 217.576 1004.16 217.431 1005.21 217.133 1006.28 216.838 1007.25 216.456 1008.13 215.985L1008.4 221.377C1006.22 222.376 1003.59 222.88 1000.53 222.88 999.413 222.88 998.249 222.731 997.04 222.437 995.832 222.142 994.729 221.584 993.727 220.758 992.725 219.932 991.899 218.812 991.253 217.4 990.603 215.985 990.278 214.131 990.278 211.832L990.278 185.76 981.529 185.76 981.529 180.457 990.278 180.457 990.278 168.791 996.113 168.791 996.113 180.457 1008.04 180.457 1008.04 185.76Z" fill="#2E3438" transform="matrix(1 0 0 1.00165 308.869 193.363)"/><path d="M1042.51 196.453 1042.51 195.393C1042.51 188.265 1038.98 184.698 1031.91 184.698 1027.07 184.698 1022.86 186.319 1019.27 189.558L1015.73 185.405C1019.62 181.398 1025.45 179.394 1033.23 179.394 1035.23 179.394 1037.17 179.692 1039.02 180.281 1040.88 180.87 1042.48 181.767 1043.84 182.975 1045.19 184.183 1046.28 185.699 1047.11 187.527 1047.93 189.355 1048.35 191.535 1048.35 194.066L1048.35 212.537C1048.35 214.131 1048.42 215.796 1048.57 217.532 1048.71 219.269 1048.87 220.7 1049.05 221.817L1043.4 221.817C1043.22 220.815 1043.09 219.729 1043 218.548 1042.91 217.37 1042.87 216.222 1042.87 215.102L1042.69 215.102C1040.98 217.871 1038.96 219.861 1036.63 221.066 1034.31 222.274 1031.46 222.88 1028.1 222.88 1026.28 222.88 1024.51 222.626 1022.8 222.129 1021.09 221.628 1019.58 220.863 1018.25 219.83 1016.93 218.798 1015.87 217.532 1015.07 216.029 1014.28 214.527 1013.88 212.773 1013.88 210.77 1013.88 207.412 1014.75 204.775 1016.48 202.86 1018.22 200.947 1020.4 199.516 1023.02 198.575 1025.64 197.634 1028.44 197.042 1031.42 196.808 1034.39 196.571 1037.12 196.453 1039.6 196.453L1042.51 196.453ZM1039.51 201.225C1038.03 201.225 1036.19 201.299 1033.98 201.445 1031.77 201.594 1029.65 201.949 1027.62 202.508 1025.59 203.066 1023.85 203.936 1022.41 205.114 1020.96 206.295 1020.24 207.913 1020.24 209.974 1020.24 211.332 1020.52 212.492 1021.08 213.467 1021.64 214.439 1022.39 215.234 1023.33 215.853 1024.27 216.469 1025.32 216.913 1026.47 217.177 1027.62 217.444 1028.78 217.576 1029.96 217.576 1032.08 217.576 1033.92 217.221 1035.49 216.517 1037.05 215.809 1038.36 214.852 1039.42 213.643 1040.48 212.435 1041.26 211.024 1041.76 209.402 1042.26 207.781 1042.51 206.058 1042.51 204.231L1042.51 201.225 1039.51 201.225Z" fill="#2E3438" transform="matrix(1 0 0 1.00165 308.869 193.363)"/><path d="M1056.21 232.953C1058.1 229.951 1059.76 227.033 1061.2 224.203 1062.65 221.377 1063.87 218.504 1064.87 215.586 1065.87 212.672 1066.62 209.653 1067.12 206.529 1067.62 203.405 1067.87 200.02 1067.87 196.365 1067.87 192.713 1067.62 189.355 1067.12 186.288 1066.62 183.225 1065.9 180.281 1064.96 177.451 1064.02 174.622 1062.84 171.826 1061.42 169.055 1060.01 166.287 1058.39 163.371 1056.56 160.306L1061.25 156.771C1065.19 162.31 1068.26 168.497 1070.44 175.329 1072.62 182.166 1073.71 189.176 1073.71 196.365 1073.71 203.202 1072.63 210.062 1070.48 216.957 1068.33 223.852 1065.14 230.184 1060.9 235.958L1056.21 232.953Z" fill="#2E3438" transform="matrix(1 0 0 1.00165 308.869 193.363)"/></g></svg>